<mxfile host="app.diagrams.net" modified="2021-05-21T09:52:20.971Z" agent="5.0 (Windows NT 10.0; Win64; x64) AppleWebKit/537.36 (KHTML, like Gecko) Chrome/90.0.4430.212 Safari/537.36" etag="armZEBYcpDlwXoZiDP9Y" version="14.7.0" type="github">
  <diagram id="3oNs5fxuG2grTaYNeIHR" name="Page-1">
    <mxGraphModel dx="1182" dy="764" grid="1" gridSize="10" guides="1" tooltips="1" connect="1" arrows="1" fold="1" page="1" pageScale="1" pageWidth="827" pageHeight="1169" math="0" shadow="0">
      <root>
        <mxCell id="0" />
        <mxCell id="1" parent="0" />
        <mxCell id="_gLoM9S2t7sjp2gbZ2T--2" value="API Endpoint" style="shape=umlLifeline;perimeter=lifelinePerimeter;whiteSpace=wrap;html=1;container=1;collapsible=0;recursiveResize=0;outlineConnect=0;" parent="1" vertex="1">
          <mxGeometry x="170" y="70" width="100" height="300" as="geometry" />
        </mxCell>
        <mxCell id="_gLoM9S2t7sjp2gbZ2T--4" value="Controller" style="shape=umlLifeline;perimeter=lifelinePerimeter;whiteSpace=wrap;html=1;container=1;collapsible=0;recursiveResize=0;outlineConnect=0;" parent="1" vertex="1">
          <mxGeometry x="330" y="70" width="100" height="300" as="geometry" />
        </mxCell>
        <mxCell id="_gLoM9S2t7sjp2gbZ2T--5" value="Service" style="shape=umlLifeline;perimeter=lifelinePerimeter;whiteSpace=wrap;html=1;container=1;collapsible=0;recursiveResize=0;outlineConnect=0;" parent="1" vertex="1">
          <mxGeometry x="510" y="70" width="100" height="300" as="geometry" />
        </mxCell>
        <mxCell id="_gLoM9S2t7sjp2gbZ2T--27" value="" style="html=1;points=[];perimeter=orthogonalPerimeter;" parent="_gLoM9S2t7sjp2gbZ2T--5" vertex="1">
          <mxGeometry x="45" y="138" width="10" height="82" as="geometry" />
        </mxCell>
        <mxCell id="_gLoM9S2t7sjp2gbZ2T--6" value="Database" style="shape=umlLifeline;perimeter=lifelinePerimeter;whiteSpace=wrap;html=1;container=1;collapsible=0;recursiveResize=0;outlineConnect=0;" parent="1" vertex="1">
          <mxGeometry x="840" y="70" width="100" height="300" as="geometry" />
        </mxCell>
        <mxCell id="_gLoM9S2t7sjp2gbZ2T--37" value="" style="html=1;points=[];perimeter=orthogonalPerimeter;" parent="_gLoM9S2t7sjp2gbZ2T--6" vertex="1">
          <mxGeometry x="45" y="100" width="10" height="20" as="geometry" />
        </mxCell>
        <mxCell id="_gLoM9S2t7sjp2gbZ2T--10" value="&lt;font style=&quot;font-size: 17px&quot;&gt;&lt;b&gt;Service-Aufruf: Get Test Result from Test Result Server&lt;/b&gt;&lt;/font&gt;" style="text;html=1;align=center;verticalAlign=middle;resizable=0;points=[];autosize=1;strokeColor=none;" parent="1" vertex="1">
          <mxGeometry x="160" y="10" width="460" height="20" as="geometry" />
        </mxCell>
        <mxCell id="_gLoM9S2t7sjp2gbZ2T--13" value="Test Result Server" style="shape=umlLifeline;perimeter=lifelinePerimeter;whiteSpace=wrap;html=1;container=1;collapsible=0;recursiveResize=0;outlineConnect=0;fillColor=#fff2cc;strokeColor=#d6b656;" parent="1" vertex="1">
          <mxGeometry x="20" y="70" width="100" height="300" as="geometry" />
        </mxCell>
        <mxCell id="_gLoM9S2t7sjp2gbZ2T--14" value="" style="html=1;points=[];perimeter=orthogonalPerimeter;" parent="1" vertex="1">
          <mxGeometry x="215" y="110" width="10" height="20" as="geometry" />
        </mxCell>
        <mxCell id="_gLoM9S2t7sjp2gbZ2T--15" value="Method:POST /testresult" style="text;html=1;align=center;verticalAlign=middle;resizable=0;points=[];autosize=1;strokeColor=none;" parent="1" vertex="1">
          <mxGeometry x="225" y="110" width="150" height="20" as="geometry" />
        </mxCell>
        <mxCell id="_gLoM9S2t7sjp2gbZ2T--18" value="" style="endArrow=open;endFill=1;endSize=12;html=1;" parent="1" edge="1">
          <mxGeometry width="160" relative="1" as="geometry">
            <mxPoint x="225" y="130" as="sourcePoint" />
            <mxPoint x="380" y="130" as="targetPoint" />
          </mxGeometry>
        </mxCell>
        <mxCell id="_gLoM9S2t7sjp2gbZ2T--19" value="" style="html=1;points=[];perimeter=orthogonalPerimeter;" parent="1" vertex="1">
          <mxGeometry x="65" y="250" width="10" height="20" as="geometry" />
        </mxCell>
        <mxCell id="_gLoM9S2t7sjp2gbZ2T--21" value="Get Test Result&lt;br&gt;&amp;nbsp;from Test Server" style="text;html=1;align=center;verticalAlign=middle;resizable=0;points=[];autosize=1;strokeColor=none;" parent="1" vertex="1">
          <mxGeometry x="90" y="240" width="110" height="30" as="geometry" />
        </mxCell>
        <mxCell id="_gLoM9S2t7sjp2gbZ2T--22" value="" style="html=1;points=[];perimeter=orthogonalPerimeter;" parent="1" vertex="1">
          <mxGeometry x="375" y="130" width="10" height="80" as="geometry" />
        </mxCell>
        <mxCell id="_gLoM9S2t7sjp2gbZ2T--23" value="Prüfung Reg. Token in DB&lt;br&gt;und SourceOfTrust&lt;br&gt;&amp;nbsp;(HASHED_GUID o. TELETAN)&lt;br&gt;+ Aufruf Service" style="text;html=1;align=center;verticalAlign=middle;resizable=0;points=[];autosize=1;strokeColor=none;" parent="1" vertex="1">
          <mxGeometry x="380" y="120" width="180" height="60" as="geometry" />
        </mxCell>
        <mxCell id="_gLoM9S2t7sjp2gbZ2T--24" value="" style="endArrow=open;endFill=1;endSize=12;html=1;entryX=0.143;entryY=0.026;entryDx=0;entryDy=0;entryPerimeter=0;" parent="1" target="_gLoM9S2t7sjp2gbZ2T--27" edge="1">
          <mxGeometry width="160" relative="1" as="geometry">
            <mxPoint x="385" y="210" as="sourcePoint" />
            <mxPoint x="550" y="210" as="targetPoint" />
          </mxGeometry>
        </mxCell>
        <mxCell id="_gLoM9S2t7sjp2gbZ2T--29" value="" style="endArrow=open;endFill=1;endSize=12;html=1;entryX=0.021;entryY=1.017;entryDx=0;entryDy=0;entryPerimeter=0;" parent="1" source="_gLoM9S2t7sjp2gbZ2T--13" edge="1">
          <mxGeometry width="160" relative="1" as="geometry">
            <mxPoint x="395" y="270" as="sourcePoint" />
            <mxPoint x="558.78" y="271.02" as="targetPoint" />
          </mxGeometry>
        </mxCell>
        <mxCell id="_gLoM9S2t7sjp2gbZ2T--41" value="return" style="html=1;verticalAlign=bottom;endArrow=open;dashed=1;endSize=8;entryX=0.083;entryY=0.738;entryDx=0;entryDy=0;entryPerimeter=0;" parent="1" target="_gLoM9S2t7sjp2gbZ2T--22" edge="1" source="_gLoM9S2t7sjp2gbZ2T--6">
          <mxGeometry x="-0.011" relative="1" as="geometry">
            <mxPoint x="740" y="190" as="sourcePoint" />
            <mxPoint x="384" y="190" as="targetPoint" />
            <Array as="points">
              <mxPoint x="690" y="190" />
              <mxPoint x="630" y="190" />
            </Array>
            <mxPoint as="offset" />
          </mxGeometry>
        </mxCell>
        <mxCell id="_gLoM9S2t7sjp2gbZ2T--43" value="Rückgabe &lt;br&gt;Registration &lt;br&gt;Token &lt;br&gt;aus Datenbank" style="text;html=1;align=center;verticalAlign=middle;resizable=0;points=[];autosize=1;strokeColor=none;" parent="1" vertex="1">
          <mxGeometry x="820" y="110" width="100" height="60" as="geometry" />
        </mxCell>
        <mxCell id="VYqTh9acs5qkJP0rl9bG-1" value="return" style="html=1;verticalAlign=bottom;endArrow=open;dashed=1;endSize=8;" parent="1" source="_gLoM9S2t7sjp2gbZ2T--5" target="_gLoM9S2t7sjp2gbZ2T--4" edge="1">
          <mxGeometry x="-0.011" relative="1" as="geometry">
            <mxPoint x="714" y="330" as="sourcePoint" />
            <mxPoint x="350.00000000000017" y="330" as="targetPoint" />
            <Array as="points">
              <mxPoint x="550" y="290" />
            </Array>
            <mxPoint as="offset" />
          </mxGeometry>
        </mxCell>
        <mxCell id="VYqTh9acs5qkJP0rl9bG-2" value="" style="html=1;points=[];perimeter=orthogonalPerimeter;" parent="1" vertex="1">
          <mxGeometry x="375" y="290" width="10" height="30" as="geometry" />
        </mxCell>
        <mxCell id="VYqTh9acs5qkJP0rl9bG-4" value="Rückgabe deferredResult &lt;br&gt;oder Fehler-Code" style="text;html=1;align=center;verticalAlign=middle;resizable=0;points=[];autosize=1;strokeColor=none;" parent="1" vertex="1">
          <mxGeometry x="225" y="290" width="150" height="30" as="geometry" />
        </mxCell>
        <mxCell id="QTBX9iI1UTGc7h64jRrQ-1" value="Model" style="shape=umlLifeline;perimeter=lifelinePerimeter;whiteSpace=wrap;html=1;container=1;collapsible=0;recursiveResize=0;outlineConnect=0;" vertex="1" parent="1">
          <mxGeometry x="680" y="70" width="100" height="300" as="geometry" />
        </mxCell>
        <mxCell id="QTBX9iI1UTGc7h64jRrQ-2" value="" style="html=1;points=[];perimeter=orthogonalPerimeter;" vertex="1" parent="QTBX9iI1UTGc7h64jRrQ-1">
          <mxGeometry x="45" y="138" width="10" height="22" as="geometry" />
        </mxCell>
        <mxCell id="QTBX9iI1UTGc7h64jRrQ-4" value="return" style="html=1;verticalAlign=bottom;endArrow=open;dashed=1;endSize=8;" edge="1" parent="1">
          <mxGeometry relative="1" as="geometry">
            <mxPoint x="720" y="230" as="sourcePoint" />
            <mxPoint x="553" y="230" as="targetPoint" />
          </mxGeometry>
        </mxCell>
      </root>
    </mxGraphModel>
  </diagram>
</mxfile>
